<svg xmlns="http://www.w3.org/2000/svg" viewBox="0 0 330 170">
  <defs>
    <linearGradient id="bone" x1="0" x2="1">
      <stop offset="0" stop-color="#4eb5d2"/>
      <stop offset=".16" stop-color="#d9fbff"/>
      <stop offset=".36" stop-color="#ffffff"/>
      <stop offset=".58" stop-color="#b8eef8"/>
      <stop offset=".82" stop-color="#58c0d8"/>
      <stop offset="1" stop-color="#146d87"/>
    </linearGradient>
    <filter id="boneGlow">
      <feDropShadow dx="0" dy="0" stdDeviation="8" flood-color="#8fffff" flood-opacity=".8"/>
      <feDropShadow dx="0" dy="10" stdDeviation="9" flood-color="#000" flood-opacity=".42"/>
    </filter>
  </defs>
  <g filter="url(#boneGlow)">
    <path d="M58 38c22-31 69-10 58 27h98c-11-37 36-58 58-27 30-7 54 18 44 47 10 29-14 54-44 47-22 31-69 10-58-27h-98c11 37-36 58-58 27-30 7-54-18-44-47-10-29 14-54 44-47Z" fill="url(#bone)" stroke="#efffff" stroke-width="6"/>
    <path d="M111 72h108" stroke="#ffffff" stroke-width="9" stroke-linecap="round" opacity=".68"/>
    <path d="M124 102h82" stroke="#197793" stroke-width="5" stroke-linecap="round" opacity=".4"/>
    <path d="M57 63c18-14 38-13 54 2M219 65c17-16 37-16 55-1" fill="none" stroke="#ffffff" stroke-width="4" stroke-linecap="round" opacity=".55"/>
    <circle cx="69" cy="91" r="8" fill="#1884a0" opacity=".28"/>
    <circle cx="260" cy="89" r="9" fill="#1884a0" opacity=".24"/>
  </g>
</svg>
