<svg xmlns="http://www.w3.org/2000/svg" viewBox="0 0 310 210">
  <defs>
    <linearGradient id="gut" x1="0" x2="1" y1="0" y2="1">
      <stop offset="0" stop-color="#ffe28b"/>
      <stop offset=".32" stop-color="#ff9c5b"/>
      <stop offset=".66" stop-color="#df4b49"/>
      <stop offset="1" stop-color="#6e1732"/>
    </linearGradient>
    <filter id="gutGlow">
      <feDropShadow dx="0" dy="0" stdDeviation="9" flood-color="#ffad5f" flood-opacity=".72"/>
      <feDropShadow dx="0" dy="10" stdDeviation="10" flood-color="#000" flood-opacity=".42"/>
    </filter>
  </defs>
  <g filter="url(#gutGlow)" fill="none" stroke-linecap="round">
    <path d="M35 72c29-55 111-40 114 14 3 51-88 26-86 72 2 50 118 48 122-4 4-54-79-33-75-81 5-59 121-64 165-7" stroke="#561020" stroke-width="54"/>
    <path d="M35 72c29-55 111-40 114 14 3 51-88 26-86 72 2 50 118 48 122-4 4-54-79-33-75-81 5-59 121-64 165-7" stroke="url(#gut)" stroke-width="38"/>
    <path d="M49 67c34-38 85-27 88 18 4 55-91 30-86 76" stroke="#ffd6a4" stroke-width="6" opacity=".55"/>
    <path d="M120 161c34 18 56 0 60-23 8-45-63-33-58-72 4-28 65-46 128-7" stroke="#ffe2ad" stroke-width="6" opacity=".48"/>
  </g>
</svg>
