<svg xmlns="http://www.w3.org/2000/svg" viewBox="0 0 700 420">
  <defs>
    <linearGradient id="bg" x1="0" y1="0" x2="1" y2="1">
      <stop offset="0" stop-color="#05243a"/>
      <stop offset=".45" stop-color="#044542"/>
      <stop offset="1" stop-color="#07101b"/>
    </linearGradient>
    <radialGradient id="light" cx="32%" cy="46%" r="45%">
      <stop offset="0" stop-color="#7effff" stop-opacity=".92"/>
      <stop offset=".35" stop-color="#28e9ff" stop-opacity=".32"/>
      <stop offset="1" stop-color="#28e9ff" stop-opacity="0"/>
    </radialGradient>
    <filter id="blur"><feGaussianBlur stdDeviation="8"/></filter>
  </defs>
  <rect width="700" height="420" rx="34" fill="url(#bg)"/>
  <circle cx="240" cy="190" r="175" fill="url(#light)"/>
  <g fill="none" stroke-linecap="round" opacity=".95">
    <path d="M20 315C130 210 255 260 350 300c103 43 220 38 330-82" stroke="#4d0712" stroke-width="74"/>
    <path d="M20 315C130 210 255 260 350 300c103 43 220 38 330-82" stroke="#e8423d" stroke-width="52"/>
    <path d="M85 287c105-72 197-31 278 2 96 40 176 21 266-58" stroke="#ffa99b" stroke-width="8" opacity=".6"/>
  </g>
  <circle cx="262" cy="212" r="78" fill="#5afcff" opacity=".18" filter="url(#blur)"/>
  <circle cx="262" cy="212" r="34" fill="#eaffff" stroke="#5afcff" stroke-width="7"/>
  <path d="M0 212h260" stroke="#72ffff" stroke-width="6" opacity=".8"/>
  <path d="M485 140c18 26 36 27 68 17-6 35 7 51 37 69-33 14-41 32-32 67-36-7-54 4-75 35-19-31-36-43-73-36 9-35 1-53-32-67 31-18 43-34 37-69 33 11 52 7 70-16Z" fill="#baff42" stroke="#f4ffd0" stroke-width="7"/>
  <text x="42" y="82" fill="#5afcff" font-size="48" font-weight="900" font-family="Trebuchet MS, sans-serif">ONE PREMIUM LEVEL</text>
  <text x="44" y="124" fill="#d8feff" font-size="24" font-weight="800" font-family="Trebuchet MS, sans-serif">Uterine Fibroid Showcase</text>
</svg>
