<svg xmlns="http://www.w3.org/2000/svg" viewBox="0 0 190 210">
  <defs>
    <linearGradient id="nerveCore" x1="0" x2="1" y1="0" y2="1">
      <stop offset="0" stop-color="#fffbd0"/>
      <stop offset=".28" stop-color="#ffe85d"/>
      <stop offset=".62" stop-color="#e8a91d"/>
      <stop offset="1" stop-color="#83500b"/>
    </linearGradient>
    <linearGradient id="nerveShade" x1="0" x2="1">
      <stop offset="0" stop-color="#5d3507"/>
      <stop offset=".45" stop-color="#ffd94e"/>
      <stop offset=".7" stop-color="#fff6a5"/>
      <stop offset="1" stop-color="#a26608"/>
    </linearGradient>
    <radialGradient id="node" cx=".35" cy=".3">
      <stop offset="0" stop-color="#fffde2"/>
      <stop offset=".4" stop-color="#ffe75a"/>
      <stop offset="1" stop-color="#a86408"/>
    </radialGradient>
    <filter id="nerveGlow" x="-60%" y="-50%" width="220%" height="210%">
      <feGaussianBlur in="SourceGraphic" stdDeviation="8" result="blur"/>
      <feFlood flood-color="#ffd84a" flood-opacity=".58" result="color"/>
      <feComposite in="color" in2="blur" operator="in" result="glow"/>
      <feMerge>
        <feMergeNode in="glow"/>
        <feMergeNode in="SourceGraphic"/>
      </feMerge>
    </filter>
  </defs>

  <g filter="url(#nerveGlow)" fill="none" stroke-linecap="round" stroke-linejoin="round">
    <path d="M96 202c-3-29 8-47 1-71-6-21-19-35-16-59 2-19 14-37 19-64"
      stroke="#6b3f08" stroke-width="25"/>
    <path d="M96 202c-3-29 8-47 1-71-6-21-19-35-16-59 2-19 14-37 19-64"
      stroke="url(#nerveCore)" stroke-width="17"/>
    <path d="M91 197c0-26 10-45 2-67-7-20-17-34-13-56 3-18 13-34 18-61"
      stroke="#fff7ad" stroke-width="3.5" opacity=".72"/>

    <path d="M84 80C60 74 45 61 31 39" stroke="#714309" stroke-width="16"/>
    <path d="M84 80C60 74 45 61 31 39" stroke="url(#nerveShade)" stroke-width="10"/>
    <path d="M48 59C37 55 27 48 18 35" stroke="url(#nerveShade)" stroke-width="7"/>
    <path d="M57 66C46 75 38 87 34 101" stroke="url(#nerveShade)" stroke-width="7"/>

    <path d="M87 112c25-8 43-22 58-45" stroke="#714309" stroke-width="16"/>
    <path d="M87 112c25-8 43-22 58-45" stroke="url(#nerveShade)" stroke-width="10"/>
    <path d="M127 86c15 0 28-6 41-19" stroke="url(#nerveShade)" stroke-width="7"/>
    <path d="M121 91c8 13 18 23 32 31" stroke="url(#nerveShade)" stroke-width="7"/>

    <path d="M99 145c24 3 43 13 59 31" stroke="#714309" stroke-width="15"/>
    <path d="M99 145c24 3 43 13 59 31" stroke="url(#nerveShade)" stroke-width="9"/>
    <path d="M137 163c14-2 27 1 40 9" stroke="url(#nerveShade)" stroke-width="6"/>
    <path d="M139 164c5 12 14 22 27 30" stroke="url(#nerveShade)" stroke-width="6"/>
  </g>

  <g fill="url(#node)" stroke="#fff4a6" stroke-width="2">
    <circle cx="82" cy="79" r="8"/>
    <circle cx="88" cy="111" r="8"/>
    <circle cx="100" cy="145" r="7"/>
    <circle cx="49" cy="59" r="5"/>
    <circle cx="127" cy="86" r="5"/>
  </g>
</svg>
