<svg xmlns="http://www.w3.org/2000/svg" viewBox="0 0 240 220">
  <defs>
    <radialGradient id="organ" cx="45%" cy="38%" r="68%">
      <stop offset="0" stop-color="#f5ff9a"/>
      <stop offset=".34" stop-color="#a8ff39"/>
      <stop offset=".7" stop-color="#4caf20"/>
      <stop offset="1" stop-color="#12330e"/>
    </radialGradient>
    <filter id="soft">
      <feDropShadow dx="0" dy="0" stdDeviation="11" flood-color="#9cff33" flood-opacity=".65"/>
      <feDropShadow dx="0" dy="10" stdDeviation="10" flood-color="#000" flood-opacity=".38"/>
    </filter>
  </defs>
  <g filter="url(#soft)">
    <path d="M119 15c21 23 35 24 64 16-3 30 6 43 32 60-29 13-35 27-28 57-30-5-45 4-63 30-17-27-31-36-62-31 7-31 1-44-28-57 27-17 35-29 31-59 29 9 43 6 54-16Z" fill="url(#organ)" stroke="#efffb0" stroke-width="6"/>
    <circle cx="86" cy="83" r="16" fill="#eaff81" opacity=".7"/>
    <circle cx="142" cy="64" r="11" fill="#fff6a8" opacity=".7"/>
    <circle cx="145" cy="134" r="19" fill="#62c82b" opacity=".45"/>
    <path d="M68 116c38-28 75-31 111-10" fill="none" stroke="#f7ffd0" stroke-width="6" stroke-linecap="round" opacity=".44"/>
  </g>
</svg>
