<svg xmlns="http://www.w3.org/2000/svg" viewBox="0 0 260 240">
  <defs>
    <radialGradient id="organ" cx="38%" cy="30%" r="72%">
      <stop offset="0" stop-color="#f7ffb0"/>
      <stop offset=".24" stop-color="#c7ff55"/>
      <stop offset=".52" stop-color="#72c933"/>
      <stop offset=".78" stop-color="#2f6b20"/>
      <stop offset="1" stop-color="#0d2410"/>
    </radialGradient>
    <filter id="soft">
      <feDropShadow dx="0" dy="0" stdDeviation="10" flood-color="#9cff33" flood-opacity=".68"/>
      <feDropShadow dx="0" dy="11" stdDeviation="10" flood-color="#000" flood-opacity=".42"/>
    </filter>
  </defs>
  <g filter="url(#soft)">
    <path d="M129 16c23 28 41 30 76 19-5 37 7 54 39 74-36 16-45 34-36 72-37-7-56 5-78 37-21-33-39-44-76-37 9-38 1-56-35-72 33-20 43-37 38-74 35 11 53 8 72-19Z" fill="url(#organ)" stroke="#efffb0" stroke-width="6"/>
    <circle cx="84" cy="86" r="17" fill="#eaff81" opacity=".7"/>
    <circle cx="148" cy="67" r="12" fill="#fff6a8" opacity=".7"/>
    <circle cx="155" cy="145" r="22" fill="#4e9f24" opacity=".45"/>
    <path d="M66 122c45-34 92-37 134-12" fill="none" stroke="#f7ffd0" stroke-width="7" stroke-linecap="round" opacity=".45"/>
    <path d="M77 161c39 21 81 20 118-2" fill="none" stroke="#1f4f17" stroke-width="5" stroke-linecap="round" opacity=".42"/>
    <path d="M103 52c27-12 55-11 84 4" fill="none" stroke="#fffcc7" stroke-width="5" stroke-linecap="round" opacity=".4"/>
  </g>
</svg>
