<svg xmlns="http://www.w3.org/2000/svg" viewBox="0 0 320 220">
  <defs>
    <radialGradient id="outerMetal" cx=".34" cy=".26" r=".78">
      <stop offset="0" stop-color="#f4ffff"/>
      <stop offset=".18" stop-color="#99f8ff"/>
      <stop offset=".42" stop-color="#2ebbd0"/>
      <stop offset=".72" stop-color="#0a506d"/>
      <stop offset="1" stop-color="#031a2a"/>
    </radialGradient>
    <radialGradient id="ceramic" cx=".42" cy=".36" r=".68">
      <stop offset="0" stop-color="#efffff"/>
      <stop offset=".18" stop-color="#71ffff"/>
      <stop offset=".5" stop-color="#10b9d2"/>
      <stop offset=".78" stop-color="#07536d"/>
      <stop offset="1" stop-color="#021520"/>
    </radialGradient>
    <radialGradient id="lens" cx=".42" cy=".32" r=".72">
      <stop offset="0" stop-color="#ffffff" stop-opacity=".96"/>
      <stop offset=".18" stop-color="#91ffff" stop-opacity=".84"/>
      <stop offset=".52" stop-color="#29d6e8" stop-opacity=".44"/>
      <stop offset="1" stop-color="#003647" stop-opacity=".18"/>
    </radialGradient>
    <linearGradient id="handle" x1="0" x2="1" y1="0" y2="1">
      <stop offset="0" stop-color="#9bfbff"/>
      <stop offset=".25" stop-color="#288ea8"/>
      <stop offset=".68" stop-color="#07384f"/>
      <stop offset="1" stop-color="#01141f"/>
    </linearGradient>
    <filter id="probeGlow" x="-50%" y="-60%" width="220%" height="240%">
      <feDropShadow dx="0" dy="0" stdDeviation="10" flood-color="#55f5ff" flood-opacity=".72"/>
      <feDropShadow dx="0" dy="12" stdDeviation="10" flood-color="#000713" flood-opacity=".58"/>
    </filter>
  </defs>

  <g filter="url(#probeGlow)">
    <path d="M224 99c24 0 40 7 55 22 12 12 17 27 17 45v28h-45v-24c0-13-4-20-13-28-7-6-16-9-27-9Z"
      fill="url(#handle)" stroke="#9cffff" stroke-width="5"/>
    <path d="M272 190v19" stroke="#071d2c" stroke-width="18" stroke-linecap="round"/>
    <path d="M272 190v19" stroke="#63eaf4" stroke-width="7" stroke-linecap="round" opacity=".72"/>

    <ellipse cx="141" cy="111" rx="112" ry="93" fill="#021824" stroke="#8ffcff" stroke-width="7"/>
    <ellipse cx="141" cy="111" rx="101" ry="83" fill="url(#outerMetal)" stroke="#d6ffff" stroke-width="4"/>

    <ellipse cx="141" cy="111" rx="76" ry="62" fill="#052c3c" stroke="#62eff8" stroke-width="5"/>
    <ellipse cx="141" cy="111" rx="66" ry="53" fill="url(#ceramic)" stroke="#c8ffff" stroke-width="4"/>
    <ellipse cx="141" cy="111" rx="52" ry="41" fill="url(#lens)" stroke="#79ffff" stroke-width="3"/>

    <ellipse cx="128" cy="93" rx="25" ry="15" fill="#fff" opacity=".42"/>
    <path d="M79 63c29-29 79-38 120-17" fill="none" stroke="#fff" stroke-width="6"
      stroke-linecap="round" opacity=".47"/>

    <g fill="none" stroke="#8effff" opacity=".62">
      <ellipse cx="141" cy="111" rx="86" ry="70" stroke-width="2"/>
      <ellipse cx="141" cy="111" rx="91" ry="75" stroke-width="2"/>
    </g>

    <circle cx="141" cy="111" r="10" fill="#efffff"/>
    <circle cx="141" cy="111" r="6" fill="#62ffff"/>
  </g>
</svg>
