<svg xmlns="http://www.w3.org/2000/svg" viewBox="0 0 460 180">
  <defs>
    <linearGradient id="blood" x1="0" x2="1">
      <stop offset="0" stop-color="#34050b"/>
      <stop offset=".18" stop-color="#8f1420"/>
      <stop offset=".42" stop-color="#e4483d"/>
      <stop offset=".58" stop-color="#ff9a84"/>
      <stop offset=".78" stop-color="#a91522"/>
      <stop offset="1" stop-color="#3c0710"/>
    </linearGradient>
    <linearGradient id="rim" x1="0" x2="0" y1="0" y2="1">
      <stop offset="0" stop-color="#ffb0a4" stop-opacity=".9"/>
      <stop offset=".5" stop-color="#6e0d15" stop-opacity=".1"/>
      <stop offset="1" stop-color="#170207" stop-opacity=".75"/>
    </linearGradient>
    <filter id="shadow" x="-20%" y="-45%" width="140%" height="190%">
      <feDropShadow dx="0" dy="12" stdDeviation="10" flood-color="#000" flood-opacity=".5"/>
      <feDropShadow dx="0" dy="0" stdDeviation="9" flood-color="#ff5c4d" flood-opacity=".5"/>
    </filter>
  </defs>
  <rect width="460" height="180" fill="none"/>
  <g filter="url(#shadow)" fill="none" stroke-linecap="round">
    <path d="M24 118C98 36 167 54 232 82c72 31 134 28 206-53" stroke="#25030a" stroke-width="78"/>
    <path d="M24 118C98 36 167 54 232 82c72 31 134 28 206-53" stroke="url(#blood)" stroke-width="56"/>
    <path d="M24 118C98 36 167 54 232 82c72 31 134 28 206-53" stroke="url(#rim)" stroke-width="42" opacity=".55"/>
    <path d="M56 102c56-49 109-52 169-20 70 37 122 19 181-39" stroke="#ffc1b6" stroke-width="8" opacity=".72"/>
    <path d="M61 130c63-34 120-24 175 6" stroke="#39050b" stroke-width="8" opacity=".45"/>
    <path d="M266 89c25 5 47 23 66 53" stroke="#5a0710" stroke-width="30"/>
    <path d="M269 87c26 5 48 22 66 50" stroke="#c92b2d" stroke-width="20"/>
    <path d="M279 78c19 5 36 18 51 38" stroke="#ff9a84" stroke-width="6" opacity=".6"/>
    <path d="M130 61c-20 25-41 43-72 55" stroke="#5a0710" stroke-width="27"/>
    <path d="M134 60c-20 23-42 40-73 51" stroke="#d43a34" stroke-width="17"/>
    <path d="M139 52c-14 16-32 30-54 40" stroke="#ff9d90" stroke-width="5" opacity=".58"/>
  </g>
</svg>
